<svg xmlns="http://www.w3.org/2000/svg" width="98.463" height="102.73" viewBox="0 0 98.463 102.73">
  <g id="Group_11" data-name="Group 11" transform="translate(-0.01 -0.002)">
    <g id="Group_1" data-name="Group 1" transform="translate(11.833 0.002)">
      <path id="Path_3" data-name="Path 3" d="M113.445,43.657a1.107,1.107,0,0,0-.971.581l-11.917-6.7-.564-2.573,2.136-1.233a.558.558,0,0,0,.449.225.57.57,0,0,0,.449-.225l5.2,3-2.738-4.946h0l-2.979-5.378v6.425a.553.553,0,0,0-.381.22l-2.92-1.687L97.324,22.7l-.008-.03-5.471-2.928a1.1,1.1,0,0,0-1-1.555,1.106,1.106,0,0,0-.538.14l-3.318-6.433-8.2,2.242L72.531,9.816l.051-.025-.148-.042-.025-.017L72.4,9.74,63.987,7.464,63.97,7.43l-.034.021-.123-.034C35.8-12.9,33.651,14.686,37.707,17.33a4.024,4.024,0,0,0,3.022.7,12.435,12.435,0,0,0-2.806,5.234,11.906,11.906,0,0,0-.348,2.882s.131,5.378-3.746,3c0,0-.131.971,1.191,1.763,0,0-.653.653-1.725,1.555-.4.335-.856.7-1.356,1.089-.085.068-.174.131-.263.2-.559.415-1.165.843-1.81,1.259-2.954,1.894,0,5.2,0,5.2s.882,1.721-.7,2.293a2.028,2.028,0,0,0,0,3.085l.216.225.754.788s-3.123.085-1.971,2.572c.025.055.047.106.076.161l.924,1.5a1.549,1.549,0,0,1-.352,2.382,4.849,4.849,0,0,0,2.869,6.556,9.644,9.644,0,0,0,1.225.407h0s7.4,1.941,9.828,6.082l.843,1.428.03.047.03.051,6,10.2,1.11,1.886,4.721,1.979,3.17,1.327L62.216,78.4l2.725,2.878,2-4.433V68.929a.784.784,0,0,0,.1,0,1.1,1.1,0,0,0,.92-.5L78.647,74.6,74.425,77.04l4.289-.555,2.823-.364-2.623-1.513,10.7-6.175a1.1,1.1,0,0,0,.924.5c.025,0,.055,0,.081,0v4.662l4.831-3.179h0l7.069-4.649h0l.445-.292,1.288-3.653,0-.008.818-2.318,7.84-13.778a1.078,1.078,0,0,0,.534.14,1.1,1.1,0,1,0,0-2.2Zm-5.565-7.281-4.789-2.763a.555.555,0,0,0,.047-.22.54.54,0,0,0-.047-.22l2.28-1.318Zm-5.234-9.455,2.666,4.814-2.284,1.322a.569.569,0,0,0-.381-.22V26.921ZM72.4,9.888l6.183,4.268-11.494-1.42Zm5.391,24L75.349,35.3l.754-3.373,1.771,1.026a1.081,1.081,0,0,0-.153.555A1.244,1.244,0,0,0,77.795,33.884Zm.47,27.213-1.17.674-2.246,1.3-1.9-5.484,5.315,3.068a.554.554,0,0,0,0,.445ZM78.49,73.98l-5.569-9.65,1.856-1.072ZM74.731,63.135,72.853,64.22l-5.641-9.769a.73.73,0,0,0,.114-.114l5.45,3.145Zm-7.785-16V40.818c.017,0,.038,0,.055-.008l3.768,10.875-3.437,1.983a.539.539,0,0,0-.191-.161ZM67,53.456c-.017,0-.038,0-.055-.008V51.553Zm.394-13.413,3.636-2.1,2.06,5.569a.527.527,0,0,0-.174.161l-5.522-3.187a.554.554,0,0,0,0-.445Zm-.068-.114a.569.569,0,0,0-.381-.22V26.891l4.039,10.926Zm.068,14.3a.544.544,0,0,0,0-.441l3.416-1.971,1.9,5.484Zm-.271-13.46a.56.56,0,0,0,.2-.17l5.526,3.191a.543.543,0,0,0-.038.2.558.558,0,0,0,1,.348l4.836,2.793-7.764,4.484Zm6.251,2.666a.673.673,0,0,0-.161.025l-2.064-5.582,4.009-2.314L73.4,43.437A.063.063,0,0,0,73.374,43.433ZM71.1,37.749,67.026,26.726l.038-.021,8.925,5.153-.788,3.53Zm4.912-6.031-8.824-5.09.182-.106-.008-.2,10.964-6.332a.537.537,0,0,0,.263.191Zm2.25-11.845-10.9,6.294-.415-11.553V12.893l11.32,6.535a.555.555,0,0,0-.047.22A.576.576,0,0,0,78.265,19.873Zm-11.9,34.354-4.357,2.517L55.96,60.236l7.01-8.408,3.395,1.958a.544.544,0,0,0,0,.441Zm.449,22.479-1.873,4.306L62.3,78.278l-.042-4.166,4.018-5.484a1.1,1.1,0,0,0,.542.292v7.785Zm0-9.942a1.105,1.105,0,0,0-.678.458L55.9,60.423l6.065-3.5,4.471-2.581a.569.569,0,0,0,.381.22v12.2Zm0-13.312a.553.553,0,0,0-.381.22l-3.378-1.95,3.759-4.509Zm0-6.5L62.974,38l3.4,2.026a.531.531,0,0,0-.051.229.559.559,0,0,0,.5.555V46.95Zm0-7.243a.55.55,0,0,0-.373.212L62.8,37.745,58.55,31.617l8.264-4.772ZM66.9,12.69l-1.7-3.043L64.08,7.625l8.15,2.208-5.285,2.835v0Zm.14,54.048a.719.719,0,0,0-.1,0V54.557a.653.653,0,0,0,.157-.038l5.637,9.764L67.861,67.1A1.1,1.1,0,0,0,67.043,66.738Zm.987,1.593a1.066,1.066,0,0,0,.119-.492,1.107,1.107,0,0,0-.2-.631L72.811,64.4,78.6,74.438Zm10.684,8.031-3.649.475,3.649-2.106Zm0-2.14L74.9,63.195l3.437-1.983a.569.569,0,0,0,.381.22Zm0-13.9a.553.553,0,0,0-.381.22L72.887,57.4l-1.958-5.649,7.785-4.5Zm0-13.3-4.831-2.789a.558.558,0,0,0,.055-.237.564.564,0,0,0-.407-.538l1.784-7.985,2.534-1.462a1.1,1.1,0,0,0,.865.593Zm0-14.609a1.125,1.125,0,0,0-.763.428l-1.818-1.051,2.581-11.54Zm0-13.312a.553.553,0,0,0-.381.22l-5.535-3.2-5.6-3.234,11.519,1.42V19.1Zm23.653,27.365L98.019,36.257l2.42,1.36Zm-.123,1.119L97.15,56.4l-6.387-2.437,7.116-17.69,4.416,10.371a.556.556,0,0,0-.284.483A.592.592,0,0,0,102.244,47.582Zm-11.5,13.227V54.117l5.37,3.1a.555.555,0,0,0-.047.22.57.57,0,0,0,.225.449L94.607,60.8H90.746Zm3.785.131-3.437,5.954a1.1,1.1,0,0,0-.352-.136V60.94ZM91.242,40.262a.54.54,0,0,0-.047-.22l6.552-3.785-7,17.406V40.818A.563.563,0,0,0,91.242,40.262Zm-.5-.555V26.637l4.018,2.322,3.034,7.12-6.671,3.852A.558.558,0,0,0,90.746,39.707Zm5.662,18.249a.555.555,0,0,0,.22.047.57.57,0,0,0,.449-.225l5.255,3.034H94.76Zm.22-1.076a.57.57,0,0,0-.449.225l-4.751-2.742,5.654,2.157-.233.407A.54.54,0,0,0,96.629,56.88ZM100.4,37.448,98.014,36.1l1.86-1.072Zm1.666-4.276a.555.555,0,0,0-.047.22.54.54,0,0,0,.047.22l-2.1,1.212-.716-3.276Zm-2.221,1.721-1.933,1.115-2.958-6.942,4.141,2.39ZM91.785,19.865l5.416,2.9,1.856,8.518-4.191-2.42-3.636-8.54A1.124,1.124,0,0,0,91.785,19.865ZM78.943,14.232l7.976-2.183L90.2,18.4a1.1,1.1,0,0,0-.445.763l-10.417.4a.562.562,0,0,0-.475-.466Zm-.1,5.976a.553.553,0,0,0,.381-.22l11.32,6.535L79.672,32.8a1.1,1.1,0,0,0-.826-.394v-12.2Zm0,14.4a1.109,1.109,0,0,0,.941-.555l10.379,5.993a.555.555,0,0,0-.047.22.54.54,0,0,0,.047.22l-11.32,6.535ZM84.707,50.48l-5.793-3.344L90.233,40.6a.731.731,0,0,0,.114.114Zm.047.178L90.547,54,84.694,57.38l-5.467,3.162a.73.73,0,0,0-.114-.114Zm-5.908-3.412,5.793,3.344L79,60.355a.473.473,0,0,0-.157-.038Zm2.284,28.8-2.284.3V74.731Zm8.3-8.209a1.082,1.082,0,0,0,.114.483L78.846,74.5V61.432a.553.553,0,0,0,.381-.22l10.4,6.005A1.077,1.077,0,0,0,89.432,67.839Zm1.182-1.1c-.025,0-.055,0-.081,0a1.09,1.09,0,0,0-.822.373L79.3,61.1a.473.473,0,0,0,.038-.157H90.615v5.8Zm0-5.933H79.337a.652.652,0,0,0-.038-.157l5.467-3.157,5.853-3.378v6.692Zm0-6.921-5.793-3.344,5.637-9.764a.473.473,0,0,0,.157.038Zm0-14.181a.553.553,0,0,0-.381.22l-10.387-6a1.1,1.1,0,0,0,.085-.424,1.077,1.077,0,0,0-.178-.6l10.862-6.272v13.07Zm0-13.3h0l-11.32-6.535a.5.5,0,0,0,.042-.178l10.409-.4a1.1,1.1,0,0,0,1.1,1.093,1.055,1.055,0,0,0,.259-.034l3.573,8.391-3.933-2.272V26.4l-.068.038Zm.131,46.945V68.92a1.1,1.1,0,0,0,.784-.61L95.2,70.429Zm11.769-7.739-7.2,4.734-3.742-2.161a1.047,1.047,0,0,0,.055-.348,1.109,1.109,0,0,0-.428-.873l3.479-6.027h7.828v4.675Zm0-4.853-5.37-3.1a.555.555,0,0,0,.047-.22.57.57,0,0,0-.225-.449l.246-.428,5.3,2.022Zm0-2.314-5.234-2,5.081-8.8a.473.473,0,0,0,.157.038V58.448Zm.335,6.946-.2.136V60.991l1.462.843Zm1.3-3.687-1.441-.831,2.178-1.259Zm-1.5-.945V58.639l2.212.843Zm2.335-1.373-2.339-.89V47.692a.559.559,0,0,0-.064-1.115c-.017,0-.034,0-.055,0l-1.933-8.87,11.824,6.65a1.129,1.129,0,0,0-.076.4,1.1,1.1,0,0,0,.458.89Z" transform="translate(-27.907 -0.002)" fill="#fff0f0"/>
    </g>
    <g id="Group_2" data-name="Group 2" transform="translate(0.01 91.776)">
      <path id="Path_4" data-name="Path 4" d="M6.655,223.882a1.821,1.821,0,0,1-1.187.364,1.772,1.772,0,0,1-.784-.17,1.859,1.859,0,0,1-.615-.475,2.143,2.143,0,0,1-.4-.725,2.914,2.914,0,0,1-.14-.924v-.03a2.711,2.711,0,0,1,.14-.873,2.3,2.3,0,0,1,.394-.725,1.824,1.824,0,0,1,.606-.487,1.766,1.766,0,0,1,.8-.178,1.784,1.784,0,0,1,1.149.348,2.825,2.825,0,0,1,.733.911l2.856-1.674a5.646,5.646,0,0,0-.776-1.089A4.7,4.7,0,0,0,8.4,217.3a5.125,5.125,0,0,0-1.3-.555,5.946,5.946,0,0,0-1.577-.2,5.7,5.7,0,0,0-2.161.407A5.432,5.432,0,0,0,1.6,218.088,5.146,5.146,0,0,0,.434,219.8a5.46,5.46,0,0,0-.424,2.149v.03a5.352,5.352,0,0,0,.437,2.191,5.282,5.282,0,0,0,1.178,1.7,5.222,5.222,0,0,0,1.712,1.1,5.481,5.481,0,0,0,2.051.386,6.17,6.17,0,0,0,1.725-.22,5.329,5.329,0,0,0,1.365-.6,4.6,4.6,0,0,0,1.043-.89,6.673,6.673,0,0,0,.771-1.089l-2.856-1.615A3.518,3.518,0,0,1,6.655,223.882Z" transform="translate(-0.01 -216.55)" fill="#fff0f0"/>
    </g>
    <g id="Group_3" data-name="Group 3" transform="translate(10.707 91.768)">
      <path id="Path_5" data-name="Path 5" d="M34.947,218.085a5.606,5.606,0,0,0-1.793-1.14,5.926,5.926,0,0,0-2.229-.415,5.827,5.827,0,0,0-2.238.424,5.57,5.57,0,0,0-1.8,1.157,5.38,5.38,0,0,0-1.2,1.716,5.129,5.129,0,0,0-.437,2.111v.03a5.236,5.236,0,0,0,1.619,3.823,5.606,5.606,0,0,0,1.793,1.14,5.926,5.926,0,0,0,2.229.415,5.827,5.827,0,0,0,2.238-.424,5.57,5.57,0,0,0,1.8-1.157,5.38,5.38,0,0,0,1.2-1.716,5.129,5.129,0,0,0,.437-2.111v-.03a5.263,5.263,0,0,0-.428-2.111A5.209,5.209,0,0,0,34.947,218.085Zm-1.873,3.882a2.605,2.605,0,0,1-.148.873,2.226,2.226,0,0,1-.428.733,2.174,2.174,0,0,1-.682.513,2.044,2.044,0,0,1-.89.191,2.037,2.037,0,0,1-1.585-.708,2.384,2.384,0,0,1-.437-.746,2.574,2.574,0,0,1-.157-.882v-.03a2.6,2.6,0,0,1,.148-.873,2.226,2.226,0,0,1,.428-.733,2.175,2.175,0,0,1,.682-.513,2.044,2.044,0,0,1,.89-.191,2.074,2.074,0,0,1,.9.191,2.11,2.11,0,0,1,.682.517,2.385,2.385,0,0,1,.437.746,2.574,2.574,0,0,1,.157.882Z" transform="translate(-25.25 -216.53)" fill="#fff0f0"/>
    </g>
    <g id="Group_4" data-name="Group 4" transform="translate(22.976 91.988)">
      <path id="Path_6" data-name="Path 6" d="M62.8,218.444a5.32,5.32,0,0,0-1.933-1.03,9.1,9.1,0,0,0-2.7-.364H54.2v10.366h3.848a8.786,8.786,0,0,0,2.746-.386,5.647,5.647,0,0,0,1.971-1.081,4.378,4.378,0,0,0,1.187-1.657,5.533,5.533,0,0,0,.394-2.119v-.03a5.435,5.435,0,0,0-.386-2.094A4.266,4.266,0,0,0,62.8,218.444ZM60.85,222.25a1.879,1.879,0,0,1-.7,1.636,3.186,3.186,0,0,1-1.9.513h-.576v-4.323h.576a3.157,3.157,0,0,1,1.9.513,1.879,1.879,0,0,1,.7,1.636Z" transform="translate(-54.2 -217.05)" fill="#fff0f0"/>
    </g>
    <g id="Group_5" data-name="Group 5" transform="translate(34.067 91.992)">
      <path id="Path_7" data-name="Path 7" d="M83.777,223.459h5.064v-2.5H83.777V219.9h5.433V217.06H80.37v10.366h8.913v-2.844H83.777Z" transform="translate(-80.37 -217.06)" fill="#fff0f0"/>
    </g>
    <g id="Group_6" data-name="Group 6" transform="translate(54.999 91.611)">
      <path id="Path_8" data-name="Path 8" d="M140.457,225.649v-5.014H135.13v2.513h1.149a.793.793,0,0,0,.631.7v.089a1.464,1.464,0,0,1-.356.119,3.2,3.2,0,0,1-.678.055,2.517,2.517,0,0,1-.945-.17,2.061,2.061,0,0,1-.725-.47,2.243,2.243,0,0,1-.479-.733,2.788,2.788,0,0,1-.013-1.9,2.2,2.2,0,0,1,.449-.72,2.031,2.031,0,0,1,.691-.475,2.2,2.2,0,0,1,.873-.174,2.958,2.958,0,0,1,1.153.225,4.265,4.265,0,0,1,1.043.644l.119.1,2.132-2.573-.11-.1a6.451,6.451,0,0,0-1.962-1.182,6.9,6.9,0,0,0-2.475-.424,6.308,6.308,0,0,0-2.327.42,5.766,5.766,0,0,0-1.865,1.165,5.338,5.338,0,0,0-1.233,1.767,5.578,5.578,0,0,0-.441,2.238,5.392,5.392,0,0,0,.466,2.255,5.284,5.284,0,0,0,1.28,1.755,5.782,5.782,0,0,0,1.9,1.127,6.757,6.757,0,0,0,2.327.394,7.635,7.635,0,0,0,2.632-.437,7.109,7.109,0,0,0,2.043-1.148Zm-.305-.144a6.767,6.767,0,0,1-1.9,1.051,7.2,7.2,0,0,1-2.522.42,6.464,6.464,0,0,1-2.221-.377,5.488,5.488,0,0,1-1.8-1.068,5.006,5.006,0,0,1-1.208-1.653,5.1,5.1,0,0,1-.437-2.157,5.233,5.233,0,0,1,.415-2.085,4.968,4.968,0,0,1,1.165-1.666,5.448,5.448,0,0,1,1.763-1.1,6.1,6.1,0,0,1,2.217-.4,6.589,6.589,0,0,1,2.365.4,6.233,6.233,0,0,1,1.759,1.03L138,220.008a4.44,4.44,0,0,0-1-.593,3.271,3.271,0,0,0-1.271-.25,2.467,2.467,0,0,0-.992.2,2.412,2.412,0,0,0-.793.547,2.452,2.452,0,0,0-.513.822,2.953,2.953,0,0,0-.182,1.06,2.879,2.879,0,0,0,.195,1.064,2.518,2.518,0,0,0,.542.835,2.364,2.364,0,0,0,.831.538,2.833,2.833,0,0,0,1.055.191,3.536,3.536,0,0,0,.746-.064,1.926,1.926,0,0,0,.517-.195l.076-.042v-.271a.8.8,0,1,0-.911-1.013h-.869v-1.9h4.713V225.5Z" transform="translate(-129.76 -216.16)" fill="#fff0f0"/>
    </g>
    <g id="Group_7" data-name="Group 7" transform="translate(65.569 91.763)">
      <path id="Path_9" data-name="Path 9" d="M159.2,216.52l-4.5,10.748h4.039l.534-1.39h3.42l.547,1.39h4.094l-4.5-10.748Zm4.247,10.443-.547-1.39h-3.84l-.534,1.39h-3.369l4.242-10.133h3.234l4.242,10.133Z" transform="translate(-154.7 -216.52)" fill="#fff0f0"/>
    </g>
    <g id="Group_8" data-name="Group 8" transform="translate(78.245 91.653)">
      <path id="Path_10" data-name="Path 10" d="M201.753,221.219a5.663,5.663,0,0,0-1.441-.665,15.263,15.263,0,0,0-1.827-.432c-.28-.051-.5-.1-.665-.144a2.134,2.134,0,0,1-.394-.144.391.391,0,0,1-.157-.119.227.227,0,0,1-.034-.136.2.2,0,0,1,.114-.182.934.934,0,0,1,.487-.093,5.375,5.375,0,0,1,1.5.237,5.081,5.081,0,0,1,1.517.754l.123.089,1.865-2.581-.114-.089a6.54,6.54,0,0,0-2.085-1.093,9.014,9.014,0,0,0-2.691-.36,6.3,6.3,0,0,0-1.937.275,4.116,4.116,0,0,0-1.428.771,3.372,3.372,0,0,0-.886,1.165,3.522,3.522,0,0,0-.3,1.471,2.658,2.658,0,0,0,.381,1.466,3.114,3.114,0,0,0,1,.975,5.956,5.956,0,0,0,1.428.623c.53.157,1.093.3,1.678.42a5.371,5.371,0,0,1,1.093.3c.144.072.216.148.216.263a.216.216,0,0,1-.131.195,1.26,1.26,0,0,1-.606.1,6.247,6.247,0,0,1-1.805-.275,5.431,5.431,0,0,1-1.729-.907l-.114-.089-1.572,1.873v-1.017h-4.7a.4.4,0,0,0-.165-.233v-7.184H184.61v10.671h8.646v-1.31a6.769,6.769,0,0,0,2.06,1.06,9.8,9.8,0,0,0,3,.445,7.036,7.036,0,0,0,1.928-.25,4.593,4.593,0,0,0,1.5-.72,3.286,3.286,0,0,0,.962-1.157,3.468,3.468,0,0,0,.343-1.564,2.794,2.794,0,0,0-.339-1.411A3.032,3.032,0,0,0,201.753,221.219Zm-8.8,5.594h-8.031V216.752h3.162v6.794a.426.426,0,1,0,.437.615h4.433v1.076l-.165.195.11.1a.457.457,0,0,1,.051.042v1.242Zm9.476-1.767a3.025,3.025,0,0,1-.873,1.051,4.185,4.185,0,0,1-1.394.67,6.78,6.78,0,0,1-1.848.237,9.6,9.6,0,0,1-2.907-.428,6.516,6.516,0,0,1-2.153-1.149v-.08l1.619-1.928a5.614,5.614,0,0,0,1.708.869,6.57,6.57,0,0,0,1.894.288,1.575,1.575,0,0,0,.759-.14.525.525,0,0,0,.284-.487.572.572,0,0,0-.39-.509,5.2,5.2,0,0,0-1.17-.322c-.576-.119-1.132-.254-1.653-.411a5.69,5.69,0,0,1-1.356-.589,2.852,2.852,0,0,1-.907-.877,2.419,2.419,0,0,1-.331-1.331,3.159,3.159,0,0,1,.275-1.314,3.041,3.041,0,0,1,.805-1.06,3.885,3.885,0,0,1,1.327-.712,5.932,5.932,0,0,1,1.839-.259,8.823,8.823,0,0,1,2.6.348,6.3,6.3,0,0,1,1.873.949l-1.513,2.1a5.364,5.364,0,0,0-1.483-.712,5.644,5.644,0,0,0-1.589-.25,1.192,1.192,0,0,0-.653.144.516.516,0,0,0-.254.47.481.481,0,0,0,.085.275.7.7,0,0,0,.271.22,2.655,2.655,0,0,0,.454.17,7.057,7.057,0,0,0,.695.153,14.835,14.835,0,0,1,1.789.424,5.111,5.111,0,0,1,1.36.627,2.712,2.712,0,0,1,.856.89,2.493,2.493,0,0,1,.3,1.284A3.117,3.117,0,0,1,202.427,225.046Z" transform="translate(-184.61 -216.26)" fill="#fff0f0"/>
    </g>
    <g id="Group_9" data-name="Group 9" transform="translate(70.684 95.556)">
      <path id="Path_11" data-name="Path 11" d="M168.919,228.072l-.979-2.6-1.17,3.107h1.657a.391.391,0,1,0,.492-.5Zm-.979-1.733.665,1.763a.389.389,0,0,0-.161.169h-1.229Z" transform="translate(-166.77 -225.47)" fill="#fff0f0"/>
    </g>
    <g id="Group_10" data-name="Group 10" transform="translate(44.238 91.996)">
      <path id="Path_12" data-name="Path 12" d="M113.571,222.664a3.281,3.281,0,0,0,.547-1.924v-.03a3.742,3.742,0,0,0-.237-1.39,3.147,3.147,0,0,0-.712-1.068,3.808,3.808,0,0,0-1.445-.865,6.952,6.952,0,0,0-2.289-.318H104.37v10.366h3.467v-2.962h.742l1.954,2.962h3.954l-2.416-3.526A3.861,3.861,0,0,0,113.571,222.664Zm-2.9-1.674a.873.873,0,0,1-.356.742,1.6,1.6,0,0,1-.979.267h-1.5v-2.03h1.509a1.66,1.66,0,0,1,.962.246.84.84,0,0,1,.356.746v.03Z" transform="translate(-104.37 -217.07)" fill="#fff0f0"/>
    </g>
  </g>
</svg>
